SplineFontDB: 3.2
FontName: SingScript.sg_letterlike
FullName: SingScript.sg "letterlike" module
FamilyName: SingScript.sg
Weight: Regular
Copyright: Copyright (c) 2025, 05524F.sg (Singapore)
Version: v2
ItalicAngle: 0
UnderlinePosition: -100
UnderlineWidth: 67
Ascent: 600
Descent: 300
InvalidEm: 0
sfntRevision: 0x00010000
LayerCount: 2
Layer: 0 0 "Back" 1
Layer: 1 0 "Fore" 0
XUID: [1021 768 647112374 32286]
StyleMap: 0x0040
FSType: 0
OS2Version: 4
OS2_WeightWidthSlopeOnly: 0
OS2_UseTypoMetrics: 1
CreationTime: 1740441635
ModificationTime: 1753308616
PfmFamily: 65
TTFWeight: 400
TTFWidth: 5
LineGap: 81
VLineGap: 0
Panose: 3 0 5 3 0 0 0 0 0 0
OS2TypoAscent: 600
OS2TypoAOffset: 0
OS2TypoDescent: -300
OS2TypoDOffset: 0
OS2TypoLinegap: 81
OS2WinAscent: 590
OS2WinAOffset: 0
OS2WinDescent: 233
OS2WinDOffset: 0
HheadAscent: 590
HheadAOffset: 0
HheadDescent: -233
HheadDOffset: 0
OS2SubXSize: 585
OS2SubYSize: 630
OS2SubXOff: 0
OS2SubYOff: 126
OS2SupXSize: 585
OS2SupYSize: 630
OS2SupXOff: 0
OS2SupYOff: 432
OS2StrikeYSize: 44
OS2StrikeYPos: 232
OS2CapHeight: 467
OS2XHeight: 300
OS2Vendor: '5524'
OS2CodePages: 00000001.00000000
OS2UnicodeRanges: 80000003.10000000.00000000.00000000
MarkAttachClasses: 1
DEI: 91125
LangName: 1033 "" "" "" "" "" "Version v2"
Encoding: Custom
UnicodeInterp: none
NameList: AGL For New Fonts
DisplaySize: -48
AntiAlias: 1
FitToEm: 0
WidthSeparation: 50
WinInfo: 0 27 5
BeginPrivate: 6
BlueValues 21 [0 0 300 300 467 467]
OtherBlues 11 [-233 -233]
StdHW 4 [67]
StdVW 4 [67]
StemSnapH 33 [52 59 63 67 73 78 86 93 159 167]
StemSnapV 4 [67]
EndPrivate
Grid
0 -200 m 24
 351 -200 549 -200 900 -200 c 1048
0 -233 m 24
 351 -233 549 -233 900 -233 c 1048
250 211 m 24
 289 211 311 211 350 211 c 1048
250 100 m 24
 289 100 311 100 350 100 c 1048
250 -100 m 24
 289 -100 311 -100 350 -100 c 1048
250 -255 m 24
 289 -255 311 -255 350 -255 c 1048
100 511 m 24
 139 511 161 511 200 511 c 1048
100 400 m 24
 139 400 161 400 200 400 c 1048
100 200 m 24

StartChar: uni2102
Encoding: 0 8450 0
Width: 367
VWidth: 0
Flags: W
HStem: -0 67<173 308.999> 390 65<241.078 327.013> 399 67<203.816 301.727>
VStem: 26 67<78.3802 307.868> 133 68<178.255 346>
LayerCount: 2
Fore
SplineSet
133 346 m 1x98
 107 312 93 266 93 211 c 0
 93 210 93 206 93 202 c 0
 93 198 93 195 93 194 c 0
 93 193 93 177 93 162 c 0
 93 147 92 132 92 131 c 0
 92 101 96 86 107 78 c 1
 123 202 130 277 133 346 c 1x98
173 67 m 1
 216 68 283 80 303 84 c 0
 307 85 309 86 309 86 c 0
 327 86 342 70 342 52 c 0
 342 36 331 22 316 19 c 0
 253 6 204 0 165 -0 c 0
 67 0 25 39 25 131 c 0
 25 141 26 152 26 162 c 0
 26 172 26 184 26 194 c 0
 26 194 26 198 26 202 c 0
 26 206 26 211 26 211 c 0
 26 360 116 466 240 466 c 0xb8
 263 466 286 463 308 455 c 0
 321 450 330 437 330 423 c 0
 330 405 315 390 297 390 c 0xd8
 286 390 277 392 268 394 c 0
 259 396 251 399 240 399 c 0xb8
 227 399 213 398 201 394 c 1
 201 312 193 223 173 67 c 1
EndSplineSet
EndChar

StartChar: uni2103
Encoding: 1 8451 1
Width: 424
Flags: W
HStem: 0 68<184.707 296.857> 30 72<293.498 378.508> 393 67<94.0805 126.53> 447 20G<360.5 374>
VStem: 25 67<336.661 384> 113 67<73.7949 154.291> 127 67<343.012 391.73>
LayerCount: 2
Fore
SplineSet
180 98 m 1024x0c
91 267 m 0
 50 267 25 305 25 366 c 0
 25 424 56 460 104 460 c 0
 153 460 194 419 194 371 c 0x2a
 194 321 140 267 91 267 c 0
94 384 m 1
 94 381 l 2
 92 376 92 375 92 366 c 0
 92 355 93 345 96 336 c 1
 114 345 127 360 127 371 c 0
 127 382 116 393 104 393 c 0
 98 393 97 392 95 385 c 2
 94 384 l 1
226 68 m 0x9c
 241 68 265 77 289 85 c 0
 313 93 337 102 352 102 c 0x4c
 370 102 386 86 386 68 c 0x8c
 386 52 364 30 348 30 c 1x4c
 294 8 261 0 226 0 c 0
 164 0 113 45 113 99 c 0
 113 168 226 345 342 458 c 0
 348 464 356 467 365 467 c 0
 383 467 399 452 399 434 c 0
 399 426 395 417 388 410 c 0
 295 320 180 148 180 99 c 1
 186 77 200 68 226 68 c 0x9c
EndSplineSet
EndChar

StartChar: uni2107
Encoding: 2 8455 2
Width: 232
VWidth: 0
Flags: W
HStem: -1 67<92.9241 181.302> 109 66<97.476 178.876> 231 70<117.7 203.363>
VStem: 25 67<68.476 102.217>
LayerCount: 2
Fore
SplineSet
124 66 m 0
 134 66 141 69 148 73 c 0
 155 77 162 80 172 80 c 0
 190 80 206 64 206 46 c 0
 206 20 170 -1 124 -1 c 0
 67 -1 25 37 25 88 c 0
 25 108 33 127 47 141 c 1
 35 153 30 166 30 184 c 0
 30 239 65 271 151 295 c 0
 161 297 165 299 168 300 c 0
 171 301 171 301 173 301 c 0
 191 301 207 285 207 267 c 0
 207 247 198 239 169 231 c 0
 117 216 98 204 97 185 c 1
 107 179 127 175 147 175 c 2
 148 175 l 1
 148 176 l 1
 166 176 182 160 182 142 c 0
 182 124 167 109 149 109 c 0
 120 108 92 98 92 88 c 0
 92 75 105 66 124 66 c 0
EndSplineSet
EndChar

StartChar: uni210A
Encoding: 3 8458 3
Width: 509
VWidth: 0
Flags: W
HStem: -234 68<162.98 216.489> -154 67<317.734 480.707> -140 67<162.515 221> -0 66<170.625 235.133> 84 67<28.2258 103.717> 280 20G<212.5 256.5>
VStem: 95 67<-163.02 -141.166> 260 67<92.9844 178.128>
LayerCount: 2
Fore
SplineSet
327 173 m 0xbf
 327 64 322 -41 314 -79 c 1
 390 -84 420 -86 451 -87 c 0
 469 -87 484 -102 484 -120 c 0
 484 -138 469 -154 451 -154 c 0xdf
 433 -154 401 -152 294 -145 c 1
 269 -202 233 -234 191 -234 c 0
 142 -234 95 -192 95 -149 c 0
 95 -125 109 -102 134 -84 c 0
 145 -76 159 -73 190 -73 c 0
 205 -73 222 -74 246 -75 c 1
 252 -51 255 -31 257 18 c 1
 236 6 211 0 183 -0 c 0
 141 0 110 32 102 84 c 1
 96 84 88 84 81 84 c 0
 39 84 25 93 25 118 c 0
 25 136 41 152 59 152 c 0
 62 152 66 151 70 151 c 0
 74 151 78 151 81 151 c 0
 89 151 98 151 104 152 c 1
 119 229 185 300 240 300 c 0
 273 300 299 278 299 251 c 0
 299 250 299 249 299 248 c 0
 322 243 327 229 327 173 c 0xbf
190 -140 m 0xbf
 169 -140 164 -142 162 -150 c 0
 162 -156 182 -166 191 -166 c 0
 199 -166 211 -157 221 -141 c 1
 209 -141 198 -140 190 -140 c 0xbf
260 179 m 1
 235 151 190 113 167 101 c 1
 169 81 176 66 183 66 c 0
 231 66 255 95 260 156 c 0
 260 157 260 158 260 159 c 0
 260 160 260 160 260 161 c 0
 260 167 260 173 260 179 c 1
EndSplineSet
EndChar

StartChar: uni210B
Encoding: 4 8459 4
Width: 550
VWidth: 0
Flags: W
HStem: -0 67<365.552 421.342> 197 67<249.329 271 271.001 305.531> 400 67<106.076 168.938>
VStem: 25 67<322.485 386.87> 67 130<33.2043 102.021> 185 67<264.47 384.127> 298 67<67.1699 198.928>
LayerCount: 2
Fore
SplineSet
374 67 m 1xf6
 405 68 426 89 445 108 c 0
 461 124 475 138 491 138 c 0
 509 138 525 123 525 105 c 0
 525 95 521 85 513 79 c 0
 506 73 500 68 488 56 c 0
 441 12 415 0 371 -0 c 0
 332 0 298 42 298 92 c 0
 298 119 301 157 306 200 c 1
 296 199 285 197 275 197 c 0
 275 197 274 197 273 197 c 0
 272 197 271 198 271 198 c 0
 258 198 246 194 236 187 c 1
 226 142 212 98 197 64 c 0
 178 22 142 -1 113 -1 c 0
 88 -1 67 16 67 51 c 0xea
 67 71 74 87 104 126 c 0
 119 146 129 161 138 174 c 0
 150 193 159 206 175 222 c 1
 182 257 185 289 185 315 c 0
 185 330 184 344 182 355 c 0
 177 378 156 400 138 400 c 0
 119 400 92 372 92 352 c 0
 92 334 76 319 58 319 c 0
 40 319 25 335 25 353 c 0
 25 409 82 467 138 467 c 0
 188 467 236 424 247 369 c 0
 250 353 252 335 252 315 c 0
 252 299 251 281 249 263 c 1
 256 264 264 265 271 265 c 0
 271 265 272 264 273 264 c 0
 274 264 275 264 275 264 c 0
 290 264 303 266 315 270 c 1
 337 410 365 467 414 467 c 0
 450 467 475 437 475 394 c 0
 475 370 470 349 458 331 c 0
 456 328 453 323 448 314 c 0
 423 268 405 246 377 227 c 1
 370 174 365 122 365 92 c 0
 365 84 369 72 374 67 c 1xf6
EndSplineSet
EndChar

StartChar: uni210C
Encoding: 5 8460 5
Width: 503
VWidth: 0
Flags: W
HStem: -145 67<224.485 343.44> -0 66<110.314 140.51> 175 66<232 400.111> 400 67<257.046 342.477>
VStem: 25 75<70.2849 132.447> 159 67<81.9674 175 241 369.939> 411 67<32.4956 154.739>
LayerCount: 2
Fore
SplineSet
226 175 m 1
 211 48 186 0 130 -0 c 0
 86 0 62 18 37 73 c 0
 25 101 25 101 25 107 c 0
 25 125 41 141 59 141 c 0
 83 141 92 118 100 98 c 0
 105 87 109 76 115 70 c 0
 118 67 122 66 130 66 c 2
 134 66 141 83 146 102 c 0
 154 134 165 220 165 251 c 0
 165 266 164 279 162 292 c 0
 160 305 159 318 159 333 c 0
 159 365 170 391 196 416 c 0
 231 450 265 467 299 467 c 0
 337 467 364 449 364 425 c 0
 364 407 349 392 331 392 c 0
 324 392 319 394 315 396 c 0
 311 398 306 400 299 400 c 0
 284 400 264 389 243 368 c 0
 230 356 226 347 226 333 c 0
 226 319 227 306 229 292 c 0
 231 278 232 265 232 251 c 0
 232 248 232 244 232 241 c 0
 391 234 418 229 454 201 c 0
 470 188 478 167 478 133 c 0
 478 -12 395 -145 304 -145 c 0
 282 -145 258 -141 224 -130 c 0
 210 -126 201 -113 201 -98 c 0
 201 -80 216 -64 234 -64 c 0
 244 -64 256 -68 269 -71 c 0
 282 -74 294 -78 304 -78 c 0
 323 -78 335 -71 350 -53 c 0
 382 -13 411 76 411 133 c 0
 411 139 410 146 409 151 c 0
 384 166 370 169 226 175 c 1
EndSplineSet
EndChar

StartChar: uni210D
Encoding: 6 8461 6
Width: 465
VWidth: 0
Flags: W
HStem: -1 22G<51 69 148 166 364 382> 189 67<201.599 346.621> 196 68<201 262.876 265.076 348> 447 20G<73 91 185.5 202 398.5 416>
VStem: 25 68<2.86416 298.125> 123 67<2.48541 193.658> 339 67<3.2926 192.199>
LayerCount: 2
Fore
SplineSet
226 433 m 0xbe
 226 433 226 431 225 428 c 0
 222 412 210 357 201 264 c 1xbe
 222 259 242 256 264 256 c 0xde
 286 256 297 257 355 265 c 1
 369 394 369 394 373 436 c 0
 374 453 390 467 407 467 c 0
 425 467 440 451 440 433 c 0
 440 425 434 360 426 288 c 0
 412 162 407 107 406 33 c 0
 406 15 391 0 373 -0 c 0
 355 0 339 15 339 33 c 0
 339 72 343 138 348 196 c 1xbe
 307 191 287 189 264 189 c 0xde
 240 189 217 191 195 196 c 1
 191 146 190 98 190 53 c 0
 190 50 190 46 190 43 c 0
 190 40 190 36 190 33 c 0
 190 15 175 -1 157 -1 c 0
 139 -1 123 15 123 33 c 0
 123 40 123 46 123 53 c 0
 123 186 140 363 160 441 c 0
 164 456 178 467 193 467 c 0
 211 467 226 451 226 433 c 0xbe
115 433 m 0
 115 391 110 324 104 258 c 0
 98 192 92 125 92 83 c 0
 92 76 93 67 93 58 c 0
 93 49 93 40 93 33 c 0
 93 15 78 -1 60 -1 c 0
 42 -1 27 13 26 31 c 0
 25 48 25 65 25 83 c 0
 25 153 30 214 36 280 c 0
 40 327 45 376 48 434 c 0
 49 452 64 466 82 466 c 0
 100 466 115 451 115 433 c 0
EndSplineSet
EndChar

StartChar: uni210E
Encoding: 7 8462 7
Width: 334
Flags: W
HStem: 0 21G<49.5 65.5 258 276> 231 69<166.521 231.104> 447 20G<98 116>
VStem: 71 67<279 462.717> 234 66<3.12434 158.336> 242 67<21.6906 230.425>
LayerCount: 2
Fore
SplineSet
234 34 m 0xf8
 234 48 236 72 238 96 c 0
 240 120 242 145 242 159 c 0
 242 191 236 213 222 231 c 1
 221 231 l 2
 218 233 216 233 212 233 c 0
 196 232 177 226 166 218 c 1
 153 199 138 166 123 124 c 0
 116 96 105 62 90 21 c 0
 85 8 72 0 59 0 c 0
 40 0 25 15 25 33 c 0
 25 41 33 65 42 90 c 0
 49 111 56 132 59 145 c 0
 68 194 71 232 71 310 c 0
 71 354 72 383 74 436 c 0
 75 454 89 467 107 467 c 0
 125 467 141 451 141 433 c 2
 141 432 l 2
 139 407 138 366 138 309 c 2
 138 279 l 1
 163 293 188 300 212 300 c 0
 273 300 309 247 309 159 c 0xf4
 309 147 303 61 300 36 c 2
 300 32 l 2
 299 14 285 0 267 0 c 0
 249 0 234 16 234 34 c 0xf8
EndSplineSet
EndChar

StartChar: uni210F
Encoding: 8 8463 8
Width: 389
VWidth: 0
Flags: W
HStem: 0 21G<104.5 120.5 313 331> 233 67<221.521 286.104> 333 68<85.2431 126 194 255.433> 447 20G<153 171>
VStem: 126 67<279 333 403 462.717> 289 66<3.12434 158.336> 297 67<21.6906 230.425>
LayerCount: 2
Fore
SplineSet
126 333 m 1xfa
 107 331 90 328 85 324 c 1
 81 324 76 321 72 318 c 0
 68 315 62 311 58 311 c 0
 40 311 25 327 25 345 c 0
 25 376 62 396 127 401 c 1
 127 411 128 422 129 436 c 0
 130 454 144 467 162 467 c 0
 180 467 196 451 196 433 c 2
 196 432 l 2
 195 424 194 414 194 403 c 1
 226 404 244 407 256 411 c 1
 259 427 272 438 288 438 c 0
 307 438 322 423 322 403 c 0
 322 358 286 339 193 336 c 1
 193 327 193 318 193 309 c 2
 193 279 l 1
 218 293 243 300 267 300 c 0
 328 300 364 247 364 159 c 0xfa
 364 147 358 61 355 36 c 2
 355 32 l 2
 354 14 340 0 322 0 c 0
 304 0 289 16 289 34 c 0xfc
 289 48 291 72 293 96 c 0
 295 120 297 145 297 159 c 0
 297 191 291 213 277 231 c 1
 276 231 l 2
 273 233 271 233 267 233 c 0
 251 232 232 226 221 218 c 1
 208 199 193 166 178 124 c 0
 171 96 160 62 145 21 c 0
 140 8 127 0 114 0 c 0
 95 0 80 15 80 33 c 0
 80 41 87 65 96 90 c 0
 103 111 111 132 114 145 c 0
 123 194 126 232 126 310 c 0
 126 318 126 326 126 333 c 1xfa
EndSplineSet
EndChar

StartChar: uni2110
Encoding: 9 8464 9
Width: 676
VWidth: 0
Flags: W
HStem: -0 67<95.1933 298.672> 388 67<477.647 616.35> 399 67<268.376 416.404>
VStem: 25 218<62 143> 174 67<287.942 372.552>
LayerCount: 2
Fore
SplineSet
651 433 m 0xa8
 651 405 619 388 565 388 c 0
 547 388 537 388 485 393 c 1
 473 357 465 317 456 277 c 0
 445 228 435 178 419 136 c 0
 391 62 355 29 286 12 c 0
 254 4 213 0 173 -0 c 0
 126 0 79 6 52 16 c 0
 35 23 25 39 25 62 c 0xd0
 25 96 41 131 63 145 c 0
 93 164 120 171 174 174 c 0xc8
 191 175 204 176 208 176 c 0
 209 176 209 177 209 177 c 0
 227 177 243 161 243 143 c 0xd0
 243 126 230 112 213 110 c 0
 203 109 195 108 178 107 c 0
 135 105 120 102 100 90 c 0
 97 86 96 80 94 74 c 1
 116 70 147 67 177 67 c 0
 242 67 295 78 318 98 c 0
 347 122 364 167 391 291 c 0
 404 349 409 372 417 399 c 1
 409 399 401 399 393 399 c 0
 335 399 286 389 244 370 c 1
 242 363 241 353 241 343 c 0
 241 331 243 327 245 322 c 0
 247 317 250 312 250 300 c 0
 250 282 234 267 216 267 c 0
 189 267 174 293 174 343 c 0
 174 388 187 417 210 428 c 0
 263 454 322 466 393 466 c 0xa8
 420 466 450 463 479 460 c 0
 508 457 538 455 565 455 c 0xc8
 579 455 585 458 591 461 c 0
 597 464 603 466 617 466 c 0
 635 466 651 451 651 433 c 0xa8
EndSplineSet
EndChar

StartChar: Ifraktur
Encoding: 10 8465 10
Width: 530
VWidth: 0
Flags: W
HStem: -139 67<145.103 269.409> 298 67<270.166 371.833> 343 67<160.628 257.763>
VStem: 86 67<183.293 335.773> 244 67<67.1443 172.945> 291 67<-50.9975 50.4443>
LayerCount: 2
Fore
SplineSet
212 -72 m 0x94
 255 -72 291 -45 291 -13 c 0x94
 291 10 279 35 267 60 c 0
 255 85 244 109 244 132 c 0
 244 171 258 200 303 248 c 0
 312 258 316 262 320 267 c 0
 321 267 l 0
 323 269 331 278 346 278 c 0
 364 278 379 263 379 245 c 0
 379 225 362 207 345 189 c 0
 328 171 311 152 311 132 c 0x98
 311 111 322 86 334 60 c 0
 346 34 358 8 358 -13 c 0
 358 -83 292 -139 212 -139 c 0
 132 -139 25 -66 25 -11 c 0
 25 7 41 23 59 23 c 0
 71 23 82 16 88 5 c 0
 112 -39 164 -72 212 -72 c 0x94
333 365 m 0xd0
 357 365 380 391 402 416 c 0
 424 441 448 467 472 467 c 0
 490 467 505 451 505 433 c 0
 505 418 495 404 480 400 c 0
 475 399 467 390 456 377 c 0
 430 347 389 298 333 298 c 0xd0
 309 298 287 309 265 320 c 0
 243 331 221 343 197 343 c 0
 188 343 179 340 169 336 c 0
 159 331 152 300 152 256 c 0
 152 255 153 244 153 234 c 0
 153 224 153 214 153 213 c 0
 153 195 138 180 120 180 c 0
 102 180 86 195 86 213 c 0
 86 220 86 227 86 234 c 0
 86 241 85 249 85 256 c 0
 85 363 119 410 197 410 c 0xb0
 220 410 243 398 265 387 c 0
 287 376 310 365 333 365 c 0xd0
EndSplineSet
EndChar

StartChar: uni2112
Encoding: 11 8466 11
Width: 527
VWidth: 0
Flags: W
HStem: -1 67<92.6583 141.479 264.201 418.227> 447 20G<79 95 311 344>
VStem: 25 67<67.2539 88.1045> 55 64<408.585 463.783> 188 61<125 174.587> 315 67<353.565 393.235> 438 64<85.0244 114.488>
LayerCount: 2
Fore
SplineSet
25 79 m 0xee
 25 129 47 156 88 156 c 0
 113 156 147 146 188 125 c 1
 198 158 205 191 212 266 c 1
 149 281 55 381 55 433 c 0
 55 451 70 467 88 467 c 0
 102 467 114 459 119 446 c 0xde
 141 393 178 351 219 334 c 1
 224 379 229 402 239 416 c 0
 258 445 296 466 326 466 c 0
 362 466 382 439 382 391 c 0
 382 317 354 284 279 268 c 1
 270 173 263 129 249 93 c 1
 287 74 312 66 332 66 c 0
 374 66 430 84 438 100 c 0
 444 111 456 118 468 118 c 0
 486 118 502 102 502 84 c 0
 502 41 418 -1 332 -1 c 0
 299 -1 264 10 212 37 c 1
 185 12 146 -1 97 -1 c 0
 50 -1 25 27 25 79 c 0xee
314 395 m 1
 295 385 292 378 287 340 c 1
 296 343 306 349 310 353 c 1
 313 365 315 380 315 391 c 0
 315 392 314 394 314 395 c 1
92 79 m 0xee
 92 74 92 69 93 66 c 0
 94 66 95 66 97 66 c 0
 112 66 131 69 142 73 c 1
 123 82 106 87 92 89 c 1
 92 85 92 82 92 79 c 0xee
EndSplineSet
EndChar

StartChar: uni2113
Encoding: 12 8467 12
Width: 270
VWidth: 0
Flags: W
HStem: -1 21G<197.5 214> 447 20G<148.5 191.5>
VStem: 102 67<367.709 397.763> 178 67<6.49178 71.289 368.134 399.418>
LayerCount: 2
Fore
SplineSet
170 367 m 1
 178 387 178 390 178 393 c 0
 178 398 176 400 170 400 c 0
 169 396 169 391 169 386 c 0
 169 382 170 375 170 367 c 1
25 95 m 0
 25 106 36 122 53 147 c 0
 69 170 91 202 116 247 c 0
 108 293 102 350 102 386 c 0
 102 438 127 467 170 467 c 0
 213 467 245 435 245 393 c 0
 245 371 219 301 186 237 c 0
 196 188 205 153 238 42 c 0
 239 39 239 36 239 33 c 0
 239 15 223 -1 205 -1 c 0
 190 -1 177 10 173 24 c 0
 150 102 145 120 137 152 c 1
 124 131 108 108 86 76 c 0
 80 67 69 62 58 62 c 0
 40 62 25 77 25 95 c 0
EndSplineSet
EndChar

StartChar: uni2115
Encoding: 13 8469 13
Width: 456
VWidth: 0
Flags: W
HStem: -0 21G<50 68 158 176 320 335.5> 447 20G<67 85 197 213.5 390.5 407>
VStem: 25 67<2.48541 266.586> 45 67<151.414 462.211> 133 67<3.2926 266.336> 295 65<2.96037 98.5254> 366 65<372.693 463.876>
LayerCount: 2
Fore
SplineSet
200 56 m 0xce
 200 52 200 48 200 44 c 0
 200 40 200 37 200 33 c 0
 200 15 185 0 167 -0 c 0
 149 0 134 14 133 32 c 0
 133 39 133 47 133 56 c 0
 133 136 155 353 172 439 c 0
 175 455 189 467 205 467 c 0
 222 467 244 453 260 434 c 0
 287 401 305 346 321 245 c 1
 334 325 350 391 366 443 c 0
 370 457 383 467 398 467 c 0
 416 467 431 451 431 433 c 0
 431 430 431 426 430 423 c 0
 403 337 374 174 360 30 c 2
 358 13 344 0 327 -0 c 0
 313 0 300 8 295 21 c 0
 281 58 272 118 263 179 c 0
 254 243 244 308 227 354 c 1
 209 225 200 121 200 56 c 0xce
92 52 m 0xee
 92 49 92 47 92 43 c 0
 92 39 92 36 92 33 c 0
 92 15 77 -1 59 -1 c 0
 41 -1 25 14 25 32 c 0
 25 39 25 45 25 52 c 0xee
 25 108 30 158 35 209 c 0
 40 260 45 310 45 366 c 0
 45 377 44 389 43 400 c 0
 42 411 42 422 42 433 c 0
 42 451 58 467 76 467 c 0
 94 467 108 452 109 435 c 0
 111 412 112 389 112 366 c 0xde
 112 311 107 260 102 209 c 0
 97 158 92 107 92 52 c 0xee
EndSplineSet
EndChar

StartChar: weierstrass
Encoding: 14 8472 14
Width: 481
VWidth: 0
Flags: W
HStem: -234 21G<109 160> -0 66<321.616 362.053> 234 66<275.538 383.544>
VStem: 25 67<111.916 214.811> 54 67<-162.94 -12.7784> 174 67<-135.291 -3.49091> 389 67<98.0194 228.605>
LayerCount: 2
Fore
SplineSet
389 184 m 0xf6
 389 221 377 234 339 234 c 0
 273 234 225 186 174 70 c 1
 218 37 241 -8 241 -63 c 0
 241 -146 186 -234 134 -234 c 0
 84 -234 54 -184 54 -100 c 0xee
 54 -51 56 -44 90 42 c 1
 34 71 25 84 25 139 c 0
 25 227 103 347 160 347 c 0
 178 347 193 331 193 313 c 0
 193 301 187 290 177 284 c 0
 123 251 92 198 92 139 c 0
 92 132 92 124 93 117 c 0
 97 114 103 111 116 104 c 1
 176 239 246 300 339 300 c 0
 414 300 456 259 456 184 c 0
 456 80 404 0 337 -0 c 0
 294 0 270 24 249 90 c 0
 241 116 240 117 240 121 c 0
 240 139 256 155 274 155 c 0
 288 155 300 146 305 133 c 0
 308 126 311 118 313 111 c 0
 317 99 320 88 324 80 c 0
 329 70 332 66 337 66 c 0
 363 66 389 125 389 184 c 0xf6
147 5 m 1
 123 -57 121 -64 121 -100 c 0
 121 -128 126 -152 133 -164 c 1
 155 -145 174 -99 174 -63 c 0
 174 -35 165 -13 147 5 c 1
EndSplineSet
EndChar

StartChar: uni2119
Encoding: 15 8473 15
Width: 432
VWidth: 0
Flags: W
HStem: 0 20G<50 68 152.5 176> 163 67<204 248.229> 447 20G<65 83 180.5 193 262 311.5>
VStem: 25 67<3.48541 296.267> 42 67<173.733 463.204> 130 67<3.32812 161.122> 253 69<279 379.985> 340 67<281.25 379.908>
LayerCount: 2
Fore
SplineSet
322 279 m 1xe7
 333 298 340 327 340 356 c 0
 340 366 337 374 329 381 c 1
 328 360 323 297 322 282 c 0
 322 280 322 279 322 279 c 1xe7
219 389 m 1
 210 296 207 269 204 230 c 1
 222 231 239 233 253 236 c 1
 253 247 259 337 262 379 c 0
 263 391 263 399 263 399 c 1
 248 398 233 395 219 389 c 1
167 -1 m 0
 138 -1 130 20 130 87 c 0
 130 150 131 166 156 436 c 0
 158 453 172 467 189 467 c 0
 197 467 206 464 212 458 c 1
 231 464 252 467 272 467 c 0
 351 467 407 420 407 356 c 0
 407 231 337 166 200 163 c 1
 198 132 197 107 197 87 c 0
 197 79 198 69 199 60 c 0
 200 51 201 41 201 33 c 0
 201 15 185 -1 167 -1 c 0
92 80 m 0xf7
 92 74 92 66 92 57 c 0
 92 48 93 40 93 34 c 0
 93 16 77 0 59 0 c 0
 41 0 27 14 26 32 c 0
 25 48 25 64 25 80 c 0xf7
 25 140 29 187 33 235 c 0
 37 283 42 330 42 390 c 0
 42 396 41 404 41 412 c 0
 41 420 41 428 41 434 c 0
 41 452 56 467 74 467 c 0
 92 467 107 453 108 435 c 0
 108 420 109 405 109 390 c 0xef
 109 330 104 283 100 235 c 0
 96 187 92 140 92 80 c 0xf7
EndSplineSet
EndChar

StartChar: uni211A
Encoding: 16 8474 16
Width: 440
VWidth: 0
Flags: W
HStem: -1 67<164.336 248.149> 400 67<190.418 270.478>
VStem: 25 67<159.747 299.89> 240 67<184 293.126> 326 67<161.003 293.126>
LayerCount: 2
Fore
SplineSet
308 160 m 1
 320 188 326 215 326 241 c 0
 326 258 324 277 319 295 c 1
 311 255 307 217 307 181 c 0
 307 174 308 167 308 160 c 1
115 311 m 1
 102 280 92 239 92 212 c 0
 92 195 95 176 101 158 c 1
 104 194 106 219 115 311 c 1
25 212 m 0
 25 348 116 467 219 467 c 0
 315 467 393 366 393 241 c 0
 393 192 377 142 349 97 c 1
 365 84 381 73 399 62 c 0
 409 56 415 45 415 33 c 0
 415 15 399 -1 381 -1 c 0
 368 -1 343 15 307 45 c 1
 274 15 237 -1 199 -1 c 0
 107 -1 25 100 25 212 c 0
271 380 m 1
 255 394 238 400 219 400 c 0
 209 400 199 398 190 395 c 1
 188 370 186 347 181 293 c 0
 170 173 165 122 163 76 c 1
 175 70 187 66 199 66 c 0
 215 66 233 72 249 84 c 1
 248 89 247 93 246 98 c 0
 233 109 220 118 204 127 c 0
 194 133 188 144 188 156 c 0
 188 174 203 190 221 190 c 0
 228 190 233 188 240 184 c 1
 240 245 251 309 271 380 c 1
EndSplineSet
EndChar

StartChar: uni211B
Encoding: 17 8475 17
Width: 613
VWidth: 0
Flags: W
HStem: -0 66<370.489 445.312> 213 67<261 371.733> 399 67<275.58 377.549>
VStem: 25 67<70.2293 142.806> 79 67<281.124 345.38> 385 67<293.44 388.714>
LayerCount: 2
Fore
SplineSet
291 280 m 0xe4
 367 280 385 292 385 344 c 0
 385 375 382 383 367 389 c 0
 352 395 325 398 282 399 c 1
 271 368 266 347 261 280 c 1
 276 280 284 280 291 280 c 0xe4
25 100 m 0xf4
 25 131 36 146 59 146 c 0
 77 146 92 130 92 112 c 0
 92 111 92 108 92 106 c 0
 92 104 92 101 92 100 c 0xf4
 92 87 93 75 96 68 c 1
 111 74 129 99 142 129 c 0
 149 146 157 160 164 174 c 0
 174 194 183 212 187 229 c 0
 191 249 193 271 195 294 c 0
 197 320 199 348 206 378 c 1
 175 358 151 334 146 317 c 0
 146 316 146 314 146 312 c 0
 146 294 131 278 113 278 c 0
 93 278 79 293 79 316 c 0xec
 79 375 185 466 253 466 c 0
 411 466 452 441 452 344 c 0
 452 252 405 213 291 213 c 0
 283 213 276 213 259 213 c 1
 276 193 292 174 307 156 c 0
 327 131 345 109 362 93 c 0
 382 74 397 66 413 66 c 0
 431 66 448 87 471 114 c 0
 488 134 508 157 533 179 c 0
 539 184 547 187 555 187 c 0
 573 187 588 172 588 154 c 0
 588 144 584 135 577 129 c 0
 556 110 539 90 523 72 c 0
 510 56 498 41 484 29 c 0
 462 9 438 0 413 -0 c 0
 362 0 329 23 256 113 c 0
 241 131 234 140 226 149 c 1
 213 123 209 115 204 103 c 0
 176 37 135 0 91 -0 c 0
 50 0 25 38 25 100 c 0xf4
EndSplineSet
EndChar

StartChar: Rfraktur
Encoding: 18 8476 18
Width: 578
VWidth: 0
Flags: W
HStem: -1 67<449.198 518.997 519 549.515> 400 66<128.794 188.152 260.652 352.249>
VStem: 25 67<183.844 352.964> 204 67<260.785 383.229> 353 67<315.053 397.319>
LayerCount: 2
Fore
SplineSet
266 260 m 1
 312 267 353 327 353 388 c 0
 353 394 338 399 320 399 c 0
 298 399 275 392 260 381 c 1
 267 359 271 334 271 308 c 0
 271 292 269 276 266 260 c 1
79 33 m 0
 79 71 110 120 141 170 c 0
 172 220 204 270 204 308 c 0
 204 358 186 400 165 400 c 0
 125 400 92 335 92 255 c 0
 92 250 92 243 93 235 c 0
 94 227 95 219 95 214 c 0
 95 196 79 180 61 180 c 0
 34 180 25 199 25 255 c 0
 25 377 84 466 165 466 c 0
 188 466 210 457 227 440 c 1
 253 457 287 466 320 466 c 0
 380 466 420 435 420 388 c 0
 420 332 395 273 357 236 c 1
 402 212 422 151 435 110 c 0
 440 93 444 79 449 73 c 0
 453 69 472 66 504 66 c 0
 504 66 507 66 511 66 c 0
 515 66 519 66 519 66 c 0
 537 66 553 51 553 33 c 0
 553 15 537 0 519 -0 c 0
 519 0 515 -1 511 -1 c 0
 507 -1 504 -1 504 -1 c 0
 429 -1 402 12 383 56 c 0
 378 67 374 80 370 94 c 0
 364 112 359 129 351 145 c 0
 335 177 327 181 274 185 c 0
 253 187 251 187 243 188 c 1
 227 153 211 124 166 55 c 0
 153 34 147 25 140 15 c 0
 134 5 124 -1 112 -1 c 0
 94 -1 79 15 79 33 c 0
EndSplineSet
EndChar

StartChar: uni211D
Encoding: 19 8477 19
Width: 494
VWidth: 0
Flags: W
HStem: 0 21G<50 67.5 154 171.5 432 444> 447 20G<87 105 188 203.5 299 338.5>
VStem: 62 67<222.875 463.707> 334 67<318.153 396.944>
LayerCount: 2
Fore
SplineSet
312 314 m 1
 326 334 334 354 334 370 c 0
 334 387 330 396 321 398 c 1
 320 376 319 366 312 314 c 1
226 373 m 1
 223 333 220 300 214 234 c 1
 222 237 229 242 238 247 c 1
 239 280 243 306 247 333 c 0
 249 350 251 367 253 385 c 1
 244 382 235 378 226 373 c 1
401 370 m 0
 401 311 354 242 282 195 c 1
 319 173 344 149 368 127 c 0
 393 104 417 82 451 64 c 0
 462 58 469 46 469 34 c 0
 469 16 453 0 435 0 c 0
 429 0 424 1 419 4 c 0
 377 26 350 52 323 77 c 0
 291 106 261 135 207 158 c 1
 203 113 199 72 196 30 c 0
 195 13 180 -1 163 -1 c 0
 145 -1 130 15 130 33 c 0
 130 44 134 101 141 176 c 0
 148 254 158 352 164 436 c 0
 165 453 179 467 197 467 c 0
 210 467 223 459 228 447 c 1
 260 460 287 466 311 466 c 0
 366 466 401 429 401 370 c 0
96 467 m 0
 114 467 129 452 129 434 c 0
 129 377 121 285 106 156 c 0
 99 95 96 66 92 30 c 0
 90 13 76 0 59 0 c 0
 41 0 25 16 25 34 c 0
 25 35 26 41 27 53 c 0
 35 116 59 316 62 434 c 0
 62 452 78 467 96 467 c 0
EndSplineSet
EndChar

StartChar: uni2124
Encoding: 20 8484 20
Width: 544
VWidth: 0
Flags: W
HStem: -1 74<31.6222 75.1679> 20 67<222.982 461.764> 394 73<107.012 315.169>
LayerCount: 2
Fore
SplineSet
394 395 m 1xa0
 386 383 379 372 364 348 c 0
 265 193 220 133 156 73 c 1
 168 74 178 75 199 77 c 1
 245 136 286 197 326 256 c 0
 358 303 391 349 423 393 c 1
 412 394 402 394 394 395 c 1xa0
338 20 m 0x60
 304 20 251 15 198 10 c 0
 145 5 92 -1 58 -1 c 0
 40 -1 25 15 25 33 c 0
 25 43 29 53 37 59 c 1
 41 68 47 72 48 73 c 0
 49 73 l 0xa0
 131 129 189 199 317 399 c 1
 301 399 285 400 269 400 c 0
 252 400 227 398 202 397 c 0
 177 396 152 394 135 394 c 0
 117 394 101 410 101 428 c 0
 101 446 114 460 132 461 c 0
 184 465 227 467 269 467 c 0
 323 467 347 465 483 456 c 0
 502 455 519 438 519 420 c 0
 519 412 517 405 512 399 c 0
 463 337 424 280 383 220 c 0
 354 178 324 133 289 85 c 1
 307 86 322 87 338 87 c 0x60
 393 87 444 80 494 65 c 0
 508 61 518 48 518 33 c 0
 518 15 502 -1 484 -1 c 0xa0
 458 -1 434 5 411 10 c 0
 388 15 364 20 338 20 c 0x60
EndSplineSet
EndChar

StartChar: Omega
Encoding: 21 8486 21
Width: 591
VWidth: 0
Flags: W
HStem: 2 67<29.6734 159> 23 67<411.704 508.124> 400 67<221.772 388.961>
VStem: 124 67<183.555 373.033> 408 67<202.315 381.738>
LayerCount: 2
Fore
SplineSet
479 23 m 0x78
 463 23 437 18 411 12 c 0
 385 6 359 0 343 -0 c 0
 325 0 309 15 309 33 c 0
 309 42 316 52 326 69 c 0
 341 93 363 129 385 191 c 0
 400 233 408 274 408 307 c 0
 408 336 401 363 389 381 c 0
 382 391 345 400 311 400 c 0
 260 400 214 384 200 362 c 0
 194 353 191 334 191 306 c 0
 191 278 202 224 213 170 c 0
 224 116 235 61 235 33 c 0
 235 15 220 0 201 -0 c 2
 200 -0 l 2
 174 1 141 2 120 2 c 0
 115 2 103 1 90 0 c 0
 77 -1 64 -1 59 -1 c 0
 41 -1 25 15 25 33 c 0
 25 50 38 64 55 66 c 0
 72 68 94 69 120 69 c 0xb8
 126 69 134 68 140 68 c 0
 146 68 153 68 159 68 c 1
 136 169 124 249 124 306 c 0
 124 348 130 377 143 398 c 0
 170 441 233 467 311 467 c 0
 374 467 423 449 444 419 c 0
 465 388 475 351 475 307 c 0
 475 242 452 162 411 83 c 1
 441 88 462 90 479 90 c 0
 531 90 566 67 566 33 c 0
 566 15 551 -1 533 -1 c 0
 519 -1 507 7 502 20 c 1
 496 22 488 23 479 23 c 0x78
EndSplineSet
EndChar

StartChar: uni2127
Encoding: 22 8487 22
Width: 591
VWidth: 0
Flags: W
HStem: 0 67<221.772 388.961> 377 67<411.704 508.124> 398 70<29.6734 159>
VStem: 124 67<93.967 285.888> 408 67<85.2623 264.685>
LayerCount: 2
Fore
SplineSet
479 444 m 0xd8
 488 444 496 445 502 447 c 1
 507 460 519 468 533 468 c 0xb8
 551 468 566 452 566 434 c 0
 566 400 531 377 479 377 c 0xd8
 462 377 441 379 411 384 c 1
 452 305 475 225 475 160 c 0
 475 116 465 79 444 48 c 0
 423 18 374 0 311 0 c 0
 233 0 170 26 143 69 c 0
 130 90 124 119 124 161 c 0
 124 218 136 298 159 399 c 1
 153 399 146 398 140 398 c 0
 134 398 126 398 120 398 c 0
 94 398 72 399 55 401 c 0
 38 403 25 417 25 434 c 0
 25 452 41 468 59 468 c 0
 64 468 77 467 90 466 c 0
 103 465 115 465 120 465 c 0
 141 465 174 466 200 467 c 2
 201 467 l 2
 220 467 235 452 235 434 c 0
 235 406 224 352 213 298 c 0
 202 244 191 189 191 161 c 0
 191 133 194 114 200 105 c 0
 214 83 260 67 311 67 c 0
 345 67 382 76 389 86 c 0
 401 104 408 131 408 160 c 0
 408 193 400 234 385 276 c 0
 363 338 341 374 326 398 c 0xb8
 316 415 309 425 309 434 c 0
 309 452 325 467 343 467 c 0
 359 467 385 462 411 456 c 0
 437 450 463 444 479 444 c 0xd8
EndSplineSet
EndChar

StartChar: uni2128
Encoding: 23 8488 23
Width: 395
VWidth: 0
Flags: W
HStem: -0 66<92.8659 261.953> 165 67<202.383 276.557> 232 67<151.124 271.231> 399 67<124.289 296.402>
VStem: 25 67<74.0187 129.744> 278 67<82.8487 163.889> 303 67<326.325 390.644>
LayerCount: 2
Fore
SplineSet
25 92 m 0xdc
 25 117 38 133 59 133 c 0
 77 133 92 117 92 99 c 0
 92 98 92 97 92 96 c 0
 92 95 92 93 92 92 c 0
 92 87 93 82 94 80 c 0
 98 72 137 66 187 66 c 0
 252 66 278 85 278 130 c 0
 278 155 272 165 257 165 c 0
 245 165 230 159 216 152 c 0
 202 145 188 138 176 138 c 0
 158 138 142 154 142 172 c 0
 142 184 148 195 159 201 c 0
 197 222 229 232 257 232 c 0
 311 232 345 193 345 130 c 0
 345 46 289 0 187 -0 c 0
 68 0 25 24 25 92 c 0xdc
303 362 m 0xba
 303 387 280 399 230 399 c 0
 215 399 196 395 178 392 c 0
 160 389 142 385 127 385 c 0
 109 385 93 401 93 419 c 0
 93 434 104 448 119 452 c 0
 159 462 197 466 230 466 c 0
 318 466 370 428 370 362 c 0
 370 290 295 232 202 232 c 0
 164 232 148 243 148 267 c 0
 148 285 164 301 182 301 c 0
 186 301 189 300 192 300 c 0
 195 300 198 299 202 299 c 0
 256 299 303 329 303 362 c 0xba
EndSplineSet
EndChar

StartChar: uni2129
Encoding: 24 8489 24
Width: 211
VWidth: 0
Flags: W
HStem: 0 21G<124 140.5> 281 20G<104.5 139.5>
VStem: 119 67<41.6652 231.596>
LayerCount: 2
Fore
SplineSet
113 233 m 1
 104 229 98 222 92 216 c 0
 83 207 74 199 59 199 c 0
 41 199 25 214 25 232 c 0
 25 241 29 250 35 256 c 0
 66 287 92 301 117 301 c 0
 162 301 186 261 186 187 c 0
 186 144 179 91 165 27 c 0
 162 11 148 0 133 0 c 0
 115 0 99 16 99 34 c 0
 99 53 104 81 109 110 c 0
 114 139 119 168 119 187 c 0
 119 208 117 224 113 233 c 1
EndSplineSet
EndChar

StartChar: uni212A
Encoding: 25 8490 25
Width: 350
Flags: W
HStem: 0 21G<50 68> 447 20G<71 89>
VStem: 47 67<290.379 463.515> 261 64<408.696 459.515>
LayerCount: 2
Fore
SplineSet
325 429 m 0
 325 381 228 277 130 219 c 1
 144 205 165 189 189 170 c 0
 227 140 273 104 311 61 c 0
 316 55 319 47 319 39 c 0
 319 21 304 6 286 6 c 0
 276 6 267 10 261 17 c 0
 238 43 116 148 99 157 c 1
 92 32 l 2
 91 14 77 0 59 0 c 0
 41 0 25 16 25 34 c 0
 26 38 41 298 47 435 c 0
 48 453 62 467 80 467 c 0
 98 467 114 451 114 433 c 0
 114 432 114 436 106 283 c 1
 182 328 232 380 261 443 c 0
 266 455 277 463 291 463 c 0
 309 463 325 447 325 429 c 0
EndSplineSet
EndChar

StartChar: uni212C
Encoding: 26 8492 26
Width: 523
Flags: W
HStem: -0 67<28.2926 144.823 256.44 368.269> 115 67<251.438 336.05> 219 51<272.264 318.722> 368 98<223 327>
VStem: 389 67<87.2506 170.009> 431 67<287.672 361.101>
LayerCount: 2
Fore
SplineSet
347 270 m 0xf4
 394 270 431 291 431 318 c 0
 431 343 406 375 378 389 c 0
 376 388 375 387 373 386 c 0
 334 371 297 334 271 284 c 1
 298 274 323 270 347 270 c 0xf4
297 182 m 0
 324 182 339 170 339 148 c 0
 339 130 324 114 306 114 c 0
 304 114 302 115 301 115 c 0
 300 115 299 115 297 115 c 0
 278 115 256 106 251 97 c 0
 254 81 278 67 304 67 c 0
 324 67 347 74 369 87 c 0
 380 94 389 113 389 133 c 0xf8
 389 171 336 203 245 219 c 1
 242 206 241 198 237 169 c 1
 256 177 276 182 297 182 c 0
327 466 m 0
 417 466 498 397 498 318 c 0xf4
 498 274 468 235 419 216 c 1
 445 190 456 165 456 133 c 0
 456 88 436 48 404 29 c 0
 372 10 337 0 304 -0 c 0
 261 0 223 18 201 50 c 1
 179 18 127 0 58 -0 c 0
 40 0 25 15 25 33 c 0
 25 51 40 66 58 66 c 0
 98 66 140 76 146 88 c 0
 161 116 165 135 171 181 c 0
 181 263 209 327 257 382 c 1
 252 379 246 376 241 373 c 0
 236 370 229 368 223 368 c 0
 205 368 190 384 190 402 c 0
 190 414 196 425 206 431 c 0
 245 454 286 466 327 466 c 0
EndSplineSet
EndChar

StartChar: uni212D
Encoding: 27 8493 27
Width: 479
Flags: W
HStem: -0 67<159.041 353.526> 130 67<127.691 239.812> 400 67<310.739 391.358>
VStem: 25 67<136.221 299.226> 172 223<362 433> 242 67<201.424 273.794> 388 66<93.5901 137.442>
LayerCount: 2
Fore
SplineSet
187 197 m 0xf4
 229 197 242 205 242 227 c 0xf4
 242 249 225 271 207 294 c 0
 189 317 172 340 172 362 c 0
 172 384 188 399 235 422 c 0
 279 443 345 467 361 467 c 0
 379 467 395 451 395 433 c 0xf8
 395 418 385 404 370 400 c 0
 333 391 276 369 244 351 c 1
 249 342 257 332 265 322 c 0
 275 309 286 294 295 278 c 0
 304 260 309 245 309 227 c 0
 309 164 267 130 187 130 c 0
 140 130 125 139 125 165 c 0
 125 183 140 199 158 199 c 0
 162 199 168 198 173 198 c 0
 178 198 183 197 187 197 c 0xf4
454 107 m 0xf2
 454 49 361 0 253 -0 c 0
 172 0 106 26 72 73 c 0
 41 116 25 165 25 216 c 0
 25 305 74 397 156 460 c 0
 162 465 169 467 176 467 c 0
 194 467 210 451 210 433 c 0
 210 423 205 412 197 406 c 0
 133 356 92 284 92 216 c 0
 92 179 103 144 126 113 c 0
 147 84 195 67 253 67 c 0
 315 67 383 90 388 114 c 0
 391 129 404 141 420 141 c 0
 438 141 454 125 454 107 c 0xf2
EndSplineSet
EndChar

StartChar: uni212F
Encoding: 28 8495 28
Width: 399
Flags: W
HStem: -0 66<153.454 260.501> 80 67<28.44 58 59 78> 280 20G<161.5 211.5>
VStem: 189 67<181.565 231.166>
LayerCount: 2
Fore
SplineSet
152 88 m 1
 157 73 164 66 173 66 c 0
 229 66 249 73 279 100 c 0
 306 124 327 136 341 136 c 0
 359 136 374 120 374 102 c 0
 374 89 367 77 355 72 c 0
 343 66 332 58 322 49 c 0
 307 36 291 22 263 12 c 0
 239 4 210 0 173 -0 c 0
 131 0 97 29 84 80 c 0
 83 80 l 0
 82 80 l 0
 74 80 66 81 57 81 c 0
 39 82 25 96 25 114 c 0
 25 132 40 148 58 148 c 0
 59 147 l 0
 62 147 71 147 78 147 c 1
 82 233 132 300 191 300 c 0
 232 300 256 266 256 211 c 0
 256 177 246 151 227 135 c 0
 190 104 176 95 152 88 c 1
189 211 m 0
 189 218 189 226 187 232 c 1
 167 223 151 195 146 158 c 1
 154 163 177 180 185 188 c 0
 187 192 189 202 189 211 c 0
EndSplineSet
EndChar

StartChar: uni2130
Encoding: 29 8496 29
Width: 408
VWidth: 0
Flags: W
HStem: -0 21G<191.5 283> 296 67<215.146 266.304> 399 67<232.59 273.956>
VStem: 109 67<72.5633 152.571> 132 67<271.453 298.951> 274 67<373.296 419.5>
LayerCount: 2
Fore
SplineSet
274 397 m 0xe4
 274 399 270 399 263 399 c 0
 254 399 241 396 239 394 c 0
 229 385 221 375 215 364 c 1
 219 363 223 363 227 363 c 0
 246 363 274 384 274 397 c 0xe4
316 85 m 1
 308 82 301 77 294 71 c 1
 309 74 316 79 316 85 c 1
199 295 m 0xec
 199 277 208 270 235 270 c 0
 244 270 254 272 260 273 c 2
 262 274 265 273 267 273 c 0
 285 273 301 258 301 240 c 0
 301 222 294 215 252 191 c 0
 196 159 176 140 176 118 c 0
 176 85 186 71 212 68 c 1
 230 116 280 153 324 153 c 0
 359 153 383 126 383 85 c 0
 383 27 335 0 231 -0 c 0
 152 0 109 41 109 118 c 0xf4
 109 156 130 189 171 219 c 1
 146 235 132 262 132 295 c 0
 132 303 133 314 134 323 c 1
 110 336 86 350 40 381 c 0
 31 387 25 398 25 409 c 0
 25 427 40 442 58 442 c 0
 69 442 79 436 97 424 c 0
 110 415 128 403 153 389 c 1
 163 409 175 426 192 442 c 0
 208 457 234 466 263 466 c 0
 311 466 341 440 341 397 c 0
 341 346 284 296 227 296 c 0
 218 296 209 297 199 299 c 1
 199 297 199 296 199 295 c 0xec
EndSplineSet
EndChar

StartChar: uni2131
Encoding: 30 8497 30
Width: 565
VWidth: 0
Flags: W
HStem: -0 21G<74.5 128> 199 67<339 452.547> 400 67<145.918 283.88>
VStem: 25 67<67.3533 125.112 288.073 351.166> 286 67<268.062 395>
LayerCount: 2
Fore
SplineSet
107 116 m 0
 107 109 104 104 100 100 c 0
 96 96 92 91 92 84 c 0
 92 79 94 72 97 67 c 1
 148 71 203 98 223 129 c 0
 230 140 239 157 246 177 c 1
 231 170 214 162 193 150 c 0
 188 147 183 145 177 145 c 0
 159 145 143 161 143 179 c 0
 143 191 149 202 160 208 c 0
 206 234 239 248 269 256 c 1
 280 304 285 355 286 399 c 1
 277 399 269 400 261 400 c 0
 198 400 154 391 137 375 c 0
 98 339 98 339 98 326 c 0
 98 314 106 299 113 285 c 0
 120 271 127 256 127 244 c 0
 127 226 112 210 94 210 c 0
 82 210 71 217 65 227 c 0
 42 267 31 298 31 326 c 0
 31 360 44 383 82 416 c 0
 127 455 168 467 261 467 c 0
 316 467 361 463 493 448 c 0
 510 446 523 432 523 415 c 0
 523 397 508 381 490 381 c 0
 490 381 484 382 474 383 c 0
 446 386 388 392 353 395 c 1
 352 354 347 310 339 266 c 1
 378 266 412 261 514 239 c 0
 529 236 540 222 540 206 c 0
 540 188 525 172 507 172 c 0
 489 172 455 179 422 186 c 0
 389 193 356 199 338 199 c 0
 333 199 328 198 323 198 c 1
 310 153 296 118 280 93 c 0
 247 40 164 0 92 -0 c 0
 57 0 25 39 25 84 c 0
 25 118 49 149 74 149 c 0
 92 149 107 134 107 116 c 0
EndSplineSet
EndChar

StartChar: uni2133
Encoding: 31 8499 31
Width: 665
VWidth: 0
Flags: W
HStem: -0 126<496 607> 446 20G<357 376.5 491 507.5>
VStem: 25 67<67.9278 140.366> 332 68<392.749 461.885> 448 67<71.6606 186.114> 466 65<388.891 463.05>
LayerCount: 2
Fore
SplineSet
345 38 m 0xf8
 315 38 298 64 298 109 c 0
 298 119 304 180 307 198 c 1
 290 160 275 129 262 104 c 0
 232 48 151 0 87 -0 c 0
 51 0 25 36 25 87 c 0
 25 124 39 146 63 146 c 0
 81 146 96 130 96 112 c 0
 96 106 95 102 94 99 c 0
 93 96 92 93 92 87 c 0
 92 80 93 72 95 67 c 1
 133 71 187 105 203 136 c 0
 234 195 288 323 332 444 c 2
 337 457 350 466 364 466 c 0
 389 466 400 447 400 404 c 0
 400 371 397 340 382 246 c 0
 377 212 373 191 371 173 c 1
 393 226 415 294 435 354 c 0
 447 389 457 421 466 445 c 0
 471 458 484 466 498 466 c 0
 517 466 531 451 531 433 c 0
 531 432 531 431 531 430 c 2xf4
 522 322 515 198 515 130 c 0
 515 105 516 85 517 71 c 1
 541 79 566 95 580 113 c 0
 586 121 597 126 607 126 c 0
 625 126 640 110 640 92 c 0
 640 55 554 0 496 -0 c 0
 460 0 448 31 448 130 c 0
 448 139 449 178 449 189 c 1
 407 76 381 38 345 38 c 0xf8
EndSplineSet
EndChar

StartChar: uni2134
Encoding: 32 8500 32
Width: 477
VWidth: 0
Flags: W
HStem: -0 66<178.099 250.966> 108 67<358.611 448.707> 280 20G<195.5 218 286 315.5>
VStem: 101 67<75.4743 120> 294 67<191.406 232.002>
LayerCount: 2
Fore
SplineSet
291 233 m 1
 289 233 286 219 286 206 c 0
 286 198 287 195 292 191 c 1
 293 199 294 206 294 212 c 0
 294 220 293 227 291 233 c 1
274 125 m 1
 254 134 239 146 230 162 c 1
 212 150 192 143 169 136 c 0
 169 132 168 128 168 124 c 0
 168 85 186 66 223 66 c 0
 240 66 259 89 274 125 c 1
295 300 m 0
 336 300 361 266 361 212 c 0
 361 201 360 190 358 177 c 1
 371 176 386 175 403 175 c 0
 405 175 408 175 411 175 c 0
 414 175 417 176 419 176 c 0
 437 176 452 160 452 142 c 0
 452 124 437 109 419 109 c 0
 414 109 408 108 403 108 c 0
 377 108 358 109 341 111 c 1
 315 40 273 0 223 -0 c 0
 149 0 102 45 101 120 c 1
 85 117 77 115 72 113 c 0
 66 111 64 110 59 110 c 0
 41 110 25 126 25 144 c 0
 25 170 36 176 112 191 c 1
 117 207 122 218 131 234 c 0
 159 284 180 300 211 300 c 0
 225 300 238 296 248 286 c 1
 260 296 277 300 295 300 c 0
EndSplineSet
EndChar

StartChar: aleph
Encoding: 33 8501 33
Width: 553
VWidth: 0
Flags: W
HStem: -0 63<28.1243 77.2708> 400 66<457.912 525.05>
VStem: 106 67<168.867 262.468> 133 67<105.69 189.759> 382 67<318.228 390.474> 411 67<260.159 334.148>
LayerCount: 2
Fore
SplineSet
449 364 m 0xc8
 449 348 456 338 463 327 c 0
 470 316 478 306 478 290 c 0
 478 250 458 222 398 179 c 0
 387 171 381 167 375 162 c 1
 398 130 423 95 452 52 c 0
 456 46 458 40 458 33 c 0
 458 15 443 0 425 -0 c 0
 414 0 403 5 397 14 c 0
 321 127 269 195 200 274 c 1xd4
 179 244 173 231 173 217 c 0xe0
 173 203 179 191 186 180 c 0
 193 169 200 157 200 143 c 0
 200 87 165 48 73 3 c 0
 68 1 64 0 59 -0 c 0
 41 0 25 15 25 33 c 0
 25 46 32 57 44 63 c 0
 111 96 133 116 133 143 c 0xd0
 133 157 126 168 119 180 c 0
 112 192 106 203 106 217 c 0
 106 247 115 270 144 311 c 0
 149 318 151 322 154 326 c 1
 132 350 108 376 76 410 c 0
 70 416 67 424 67 433 c 0
 67 451 82 467 100 467 c 0
 109 467 119 463 125 456 c 0
 226 349 281 286 335 216 c 1
 342 221 350 227 358 233 c 0
 372 243 385 253 395 262 c 0
 406 273 411 281 411 290 c 0
 411 291 l 0xe4
 411 304 403 315 396 327 c 0
 389 339 382 351 382 364 c 0
 382 417 437 466 495 466 c 0
 513 466 528 451 528 433 c 0
 528 415 513 400 495 400 c 0
 475 400 449 379 449 364 c 0xc8
EndSplineSet
EndChar

StartChar: uni2136
Encoding: 34 8502 34
Width: 452
VWidth: 0
Flags: W
HStem: -1 68<32.108 215.268 280 393.857> 6 66<27.9501 156.545> 233 67<51.2342 242.677>
VStem: 244 67<125.933 227.624>
LayerCount: 2
Fore
SplineSet
280 67 m 1xb0
 325 69 358 75 377 79 c 0
 385 81 391 82 394 82 c 0
 412 82 427 66 427 48 c 0
 427 32 416 18 400 15 c 0
 346 4 297 -1 244 -1 c 0xb0
 216 -1 188 1 158 2 c 0
 127 3 93 6 58 6 c 0
 40 6 25 21 25 39 c 0
 25 57 40 72 58 72 c 0x70
 90 72 187 68 208 67 c 0
 210 67 212 67 212 67 c 0
 216 93 223 121 230 147 c 0
 237 175 244 199 244 213 c 0
 244 215 243 217 243 218 c 0
 231 228 211 233 184 233 c 0
 170 233 146 230 122 226 c 0
 98 222 74 218 60 218 c 0
 42 218 26 234 26 252 c 0
 26 269 39 283 55 285 c 0
 163 300 162 300 184 300 c 0
 263 300 311 267 311 213 c 0
 311 188 303 161 295 131 c 0
 290 111 284 90 280 67 c 1xb0
EndSplineSet
EndChar

StartChar: uni2137
Encoding: 35 8503 35
Width: 385
VWidth: 0
Flags: W
HStem: -1 66<298.926 356.358> 400 67<91.4833 208.577>
VStem: 222 67<276.373 386.183>
LayerCount: 2
Fore
SplineSet
166 400 m 0
 154 400 143 395 132 391 c 0
 121 387 109 382 97 382 c 0
 79 382 64 398 64 416 c 0
 64 429 72 442 84 447 c 0
 114 460 141 467 166 467 c 0
 233 467 289 413 289 347 c 0
 289 309 266 243 230 173 c 1
 271 105 300 75 335 65 c 0
 350 61 360 48 360 33 c 0
 360 15 344 -1 326 -1 c 0
 288 -1 233 44 190 110 c 1
 165 78 144 59 79 7 c 0
 73 2 66 0 58 -0 c 0
 40 0 25 15 25 33 c 0
 25 45 29 53 41 62 c 0
 127 131 151 159 183 230 c 0
 212 296 222 324 222 347 c 0
 222 376 197 400 166 400 c 0
EndSplineSet
EndChar

StartChar: uni2138
Encoding: 36 8504 36
Width: 442
VWidth: 0
Flags: W
HStem: -0 21G<266 278> 292 67<146.043 281.526> 447 20G<50 69>
VStem: 308 67<208.021 316.2> 337 67<115.898 226.375>
LayerCount: 2
Fore
SplineSet
337 167 m 0xe8
 337 193 329 206 322 218 c 0
 315 230 308 243 308 269 c 0
 308 284 311 299 317 317 c 1
 281 300 250 292 221 292 c 0
 132 292 25 369 25 433 c 0
 25 451 41 467 59 467 c 0
 79 467 87 452 97 433 c 0
 113 404 134 366 214 359 c 0
 216 359 219 359 221 359 c 0
 246 359 274 374 301 389 c 0
 328 404 356 419 381 419 c 0
 402 419 417 404 417 384 c 0
 417 368 406 347 396 326 c 0
 386 305 375 285 375 269 c 0xf0
 375 246 382 232 389 218 c 0
 396 204 404 190 404 167 c 0
 404 109 363 50 292 5 c 0
 287 2 281 0 275 -0 c 0
 257 0 241 15 241 33 c 0
 241 44 247 55 257 61 c 0
 307 92 337 133 337 167 c 0xe8
EndSplineSet
EndChar

StartChar: uni213F
Encoding: 37 8511 37
Width: 647
VWidth: 0
Flags: W
HStem: -234 21G<50 67.5 150 168 425 443 533 550> 385 67<227.441 444.626> 394 73<225 386.802 511.656 553>
VStem: 56 67<125.432 460.353> 158 67<162.069 393.956> 400 67<-230.348 7.91147> 445 67<157.126 386> 508 67<-230.407 -9.63043>
LayerCount: 2
Fore
SplineSet
400 -200 m 0xbc
 400 -120 411 -18 422 85 c 0
 433 188 445 291 445 371 c 0
 445 376 445 381 445 386 c 1
 427 385 408 385 390 385 c 0xda
 334 385 277 388 225 394 c 1
 225 389 225 383 225 375 c 0
 225 297 219 185 200 -79 c 0
 195 -151 194 -177 192 -202 c 0
 191 -220 177 -234 159 -234 c 0
 141 -234 125 -218 125 -200 c 0
 125 -157 134 -35 142 88 c 0
 150 211 158 332 158 375 c 0
 158 385 158 395 157 404 c 0
 156 413 155 423 155 433 c 0
 155 451 170 467 189 467 c 0xba
 191 467 192 466 194 466 c 2
 240 458 322 452 390 452 c 0xda
 421 452 455 455 489 459 c 0
 523 463 558 467 589 467 c 0
 607 467 622 452 622 433 c 0
 622 348 586 -140 575 -206 c 0
 572 -222 558 -234 542 -234 c 0
 524 -234 508 -218 508 -200 c 0xb9
 508 -199 509 -198 509 -195 c 0
 512 -173 527 -71 553 394 c 1
 539 392 525 391 511 390 c 1
 511 384 512 377 512 371 c 0xba
 512 227 496 90 483 -25 c 0
 475 -93 469 -153 467 -201 c 0
 466 -219 452 -234 434 -234 c 0
 416 -234 400 -218 400 -200 c 0xbc
56 338 m 0
 56 355 55 370 54 385 c 0xd8
 53 400 51 416 51 433 c 0
 51 451 66 467 84 467 c 0xb8
 100 467 114 455 117 439 c 0
 121 418 123 389 123 338 c 0
 123 211 108 -45 92 -203 c 0
 90 -220 76 -234 59 -234 c 0
 41 -234 25 -218 25 -200 c 0
 25 -144 33 -38 41 69 c 0
 49 176 56 282 56 338 c 0
EndSplineSet
EndChar

StartChar: uni2140
Encoding: 38 8512 38
Width: 550
VWidth: 0
Flags: W
HStem: -234 67<245 417.544> -225 67<245.605 498.689> 386 67<230.891 495.734> 401 66<383.427 521.699>
VStem: 25 66<389.001 463.442>
LayerCount: 2
Fore
SplineSet
25 433 m 0x98
 25 451 41 467 59 467 c 0
 75 467 88 455 91 440 c 0
 101 394 137 335 226 220 c 0
 280 150 288 136 288 117 c 0
 288 100 275 76 232 6 c 0
 200 -46 155 -115 87 -218 c 0
 81 -227 70 -234 59 -234 c 0
 41 -234 26 -218 26 -200 c 0
 26 -193 28 -188 32 -182 c 0
 136 -24 203 83 219 117 c 1
 210 132 192 154 171 181 c 0
 118 250 43 348 26 426 c 0
 25 428 25 431 25 433 c 0x98
244 -234 m 0
 188 -234 161 -218 161 -186 c 0
 161 -170 163 -169 210 -101 c 0
 304 33 327 72 352 125 c 1
 346 141 325 164 298 194 c 0
 248 249 178 326 145 420 c 0
 144 424 143 427 143 431 c 0
 143 452 159 467 184 467 c 0x98
 212 467 248 463 283 460 c 0
 318 457 353 453 381 453 c 0x28
 404 453 420 457 436 460 c 0
 452 463 469 467 492 467 c 0
 510 467 525 451 525 433 c 0
 525 419 516 406 502 401 c 0x18
 471 390 433 386 381 386 c 0
 340 386 304 388 229 396 c 1
 261 336 304 287 342 245 c 0
 384 198 419 160 419 125 c 0
 419 92 385 33 265 -139 c 0
 259 -148 251 -158 245 -167 c 1xa8
 266 -167 292 -165 320 -163 c 0
 353 -161 388 -158 419 -158 c 0x48
 491 -158 520 -170 520 -200 c 0
 520 -218 505 -234 487 -234 c 0x88
 472 -234 462 -231 453 -229 c 0
 444 -227 434 -225 419 -225 c 0x48
 393 -225 362 -228 331 -230 c 0
 300 -232 270 -234 244 -234 c 0
EndSplineSet
EndChar

StartChar: uni2145
Encoding: 39 8517 39
Width: 415
VWidth: 0
Flags: W
HStem: -1 21G<59 76 169 187.5> 447 20G<56 74 152 165.5>
VStem: 25 67<33.75 371.125> 152 67<82 386.637> 323 67<211.579 359.597>
LayerCount: 2
Fore
SplineSet
215 82 m 1
 269 110 323 223 323 308 c 0
 323 362 293 382 205 389 c 1
 215 339 219 287 219 230 c 0
 219 200 218 166 217 136 c 0
 216 115 215 96 215 82 c 1
183 -1 m 0
 155 -1 148 16 148 75 c 0
 148 101 149 127 150 153 c 0
 151 179 152 204 152 230 c 0
 152 301 145 363 129 424 c 0
 128 427 128 430 128 433 c 0
 128 451 143 467 161 467 c 0
 170 467 178 463 184 457 c 1
 327 452 390 407 390 308 c 0
 390 172 300 25 208 10 c 1
 202 3 192 -1 183 -1 c 0
92 131 m 0
 92 115 94 99 96 82 c 0
 98 65 101 49 101 33 c 0
 101 15 85 -1 67 -1 c 0
 51 -1 37 10 34 25 c 0
 27 53 25 87 25 131 c 0
 25 171 27 211 29 252 c 0
 31 293 33 333 33 373 c 0
 33 383 32 393 32 403 c 0
 32 413 32 423 32 433 c 0
 32 451 47 467 65 467 c 0
 83 467 98 453 99 435 c 0
 100 416 100 395 100 373 c 0
 100 334 98 293 96 252 c 0
 94 211 92 170 92 131 c 0
EndSplineSet
EndChar

StartChar: uni2146
Encoding: 40 8518 40
Width: 458
VWidth: 0
Flags: W
HStem: -0 21G<88.5 131.5 221.5 238 332 350> 280 20G<154.5 194.5> 447 19G<284.5 301.5 391 409>
VStem: 25 67<70.7484 155.606> 260 65<371.569 463.05> 307 67<3.65208 188.989> 366 67<293.637 463.876>
LayerCount: 2
Fore
SplineSet
119 172 m 1xf0
 100 131 92 104 92 86 c 0
 92 77 94 72 97 70 c 1
 104 97 110 128 119 172 c 1xf0
400 467 m 0
 418 467 433 451 433 433 c 0xf2
 433 385 421 323 407 257 c 0
 392 183 374 103 374 33 c 0
 374 15 359 0 341 0 c 0
 323 0 307 16 307 34 c 0xf4
 307 111 322 178 337 247 c 0
 350 307 362 367 366 435 c 0xf2
 367 453 382 467 400 467 c 0
117 -0 m 0
 60 0 25 32 25 86 c 0
 25 109 31 134 43 164 c 0
 84 267 120 300 189 300 c 0
 200 300 211 299 223 297 c 1
 236 354 250 413 260 443 c 0
 264 457 277 466 292 466 c 0
 311 466 325 451 325 433 c 0
 325 430 326 427 325 425 c 2xf8
 305 339 282 241 269 186 c 0
 260 135 255 94 255 70 c 0
 255 59 257 54 259 51 c 0
 261 48 262 44 262 33 c 0
 262 15 247 0 229 -0 c 0
 214 0 202 8 195 24 c 1
 172 8 146 0 117 -0 c 0
203 198 m 2
 205 209 207 219 209 231 c 1
 205 232 202 233 199 233 c 0
 172 96 172 97 171 93 c 1
 178 102 183 113 186 125 c 2
 203 198 l 2
EndSplineSet
EndChar

StartChar: uni2147
Encoding: 41 8519 41
Width: 359
VWidth: 0
Flags: W
HStem: -0 66<123.016 237.414> 38 66<258.647 330.699> 126 174<150.408 210.46>
LayerCount: 2
Fore
SplineSet
146 228 m 1x20
 124 223 110 214 102 201 c 1
 117 197 131 195 142 194 c 0
 142 196 142 196 146 228 c 1x20
228 224 m 1
 225 227 220 229 214 231 c 1
 213 225 212 219 211 208 c 1
 218 213 225 220 228 224 c 1
25 155 m 0
 25 252 84 300 201 300 c 0
 252 300 295 265 295 224 c 0
 295 173 229 126 158 126 c 0
 139 126 118 128 94 134 c 1
 103 94 134 66 171 66 c 0xa0
 192 66 214 76 236 85 c 0
 258 94 280 104 301 104 c 0
 319 104 334 88 334 70 c 0
 334 55 325 42 311 38 c 0x60
 299 34 290 31 270 23 c 0
 227 5 204 0 171 -0 c 0xa0
 90 0 25 69 25 155 c 0
EndSplineSet
EndChar

StartChar: uni2148
Encoding: 42 8520 42
Width: 239
VWidth: 0
Flags: W
HStem: 0 20G<50 67 152 169.5> 281 20G<62 79.5 172 190> 400 66<146.124 207.05>
VStem: 41 67<35.1265 295.745> 127 87<40.4745 265.122> 143 67<52.4304 295.451 403.293 462.707>
LayerCount: 2
Fore
SplineSet
143 433 m 0xf4
 143 451 159 466 177 466 c 0
 195 466 210 451 210 433 c 0
 210 415 195 400 177 400 c 0
 159 400 143 415 143 433 c 0xf4
181 301 m 0
 199 301 214 285 214 267 c 0
 214 256 214 257 194 30 c 0
 192 13 178 -1 161 -1 c 0
 143 -1 127 15 127 33 c 0xf8
 127 39 129 54 131 78 c 0
 135 120 142 186 147 269 c 0
 148 287 163 301 181 301 c 0
25 34 m 0
 25 58 29 84 33 111 c 0
 37 138 41 164 41 188 c 0
 41 198 40 213 39 228 c 0
 38 243 37 258 37 268 c 0
 37 286 53 301 71 301 c 0
 88 301 102 288 104 271 c 0
 107 242 108 215 108 188 c 0
 108 138 103 89 91 27 c 0
 88 11 75 0 59 0 c 0
 41 0 25 16 25 34 c 0
EndSplineSet
EndChar

StartChar: uni2149
Encoding: 43 8521 43
Width: 343
VWidth: 0
Flags: W
HStem: -158 67<96.9559 160.182> 0 21G<167.5 186> 280 21G<172 190.5 273 291> 400 66<235.95 296.876>
VStem: 144 67<3.48541 295.745> 233 67<403.293 462.707> 251 67<33 295.579>
LayerCount: 2
Fore
SplineSet
233 433 m 0xfc
 233 451 248 466 266 466 c 0
 284 466 300 451 300 433 c 0
 300 415 284 400 266 400 c 0
 248 400 233 415 233 433 c 0xfc
251 190 m 0xfa
 251 199 250 214 250 229 c 0
 250 244 249 258 249 267 c 0
 249 285 264 300 282 300 c 0
 300 300 315 286 316 268 c 0
 317 234 318 211 318 190 c 0
 318 62 297 -15 250 -67 c 0
 243 -75 237 -83 231 -91 c 0
 218 -107 205 -124 188 -137 c 0
 170 -151 152 -158 132 -158 c 0
 100 -158 69 -141 34 -104 c 0
 28 -98 25 -90 25 -81 c 0
 25 -63 40 -48 58 -48 c 0
 67 -48 77 -51 83 -58 c 0
 102 -79 121 -91 132 -91 c 0
 143 -91 153 -82 179 -49 c 0
 190 -35 195 -30 201 -23 c 0
 236 16 251 81 251 190 c 0xfa
181 301 m 0
 200 301 215 286 215 268 c 2
 211 33 l 2
 211 15 195 0 177 0 c 0
 158 0 144 16 144 34 c 2
 148 268 l 2
 148 286 163 301 181 301 c 0
EndSplineSet
EndChar

StartChar: uni214B
Encoding: 44 8523 44
Width: 390
Flags: W
HStem: 0 67<198.044 249.229> 447 20G<69 91.5>
VStem: 131 67<67.0203 121.599> 298 67<330.184 382>
LayerCount: 2
Fore
SplineSet
198 72 m 0
 198 67 198 67 200 67 c 0
 213 67 239 78 254 90 c 1
 249 102 240 120 229 140 c 1
 211 115 198 86 198 72 c 0
96 362 m 1
 77 389 64 402 56 410 c 0
 47 419 44 422 44 433 c 0
 44 451 60 467 78 467 c 2
 81 467 l 2
 102 467 118 452 155 395 c 1
 226 432 273 449 304 449 c 0
 342 449 365 424 365 382 c 0
 365 339 346 302 272 201 c 1
 314 126 325 102 325 86 c 0
 325 47 257 0 200 0 c 0
 159 0 131 30 131 73 c 0
 131 107 148 144 193 206 c 1
 185 220 160 261 132 306 c 1
 113 296 98 287 77 273 c 0
 67 268 64 267 59 267 c 0
 41 267 25 283 25 301 c 0
 25 319 29 323 76 350 c 2
 96 362 l 1
236 265 m 1
 278 322 298 360 298 382 c 1
 276 379 241 365 191 339 c 1
 193 337 216 299 236 265 c 1
EndSplineSet
EndChar
